#!OML:ASF H:\Terrain\Patient Classification 1\Walking\liu\liu.ASF
:FULLY-SPECIFIED
:DEGREES
485
root 11.968660 19.015369 34.775181 4.743904 4.728493 5.128915
lowerback -9.127349 -5.308941 -5.949262
upperback 2.733027 -6.555571 1.592107
thorax 8.811451 -3.534696 3.990305
lowerneck -26.399891 -2.826241 -10.715848
upperneck 25.585011 -3.221548 11.388630
head 13.112660 -0.913659 5.567375
rclavicle 0.000000 0.000000
rhumerus -49.817131 9.531071 -94.065834
rradius 41.397949
rwrist -21.774059
rhand -35.880020 -24.234430
rfingers 7.837522
rthumb -6.430182 -57.123661
lclavicle 0.000000 0.000000
lhumerus -6.295740 -23.920052 90.831627
lradius 36.216183
lwrist 9.543447
lhand -18.790859 -28.378571
lfingers 7.837522
lthumb 10.071159 4.380772
rfemur -44.114067 9.714849 11.103070
rtibia 32.857220
rfoot -24.481930 -7.288325
rtoes -17.311470
lfemur 12.912570 2.653090 -32.512260
ltibia 0.000000
lfoot -15.137759 4.970075
ltoes 2.838297
486
root 11.961070 19.002611 34.932152 4.834280 4.709111 4.956644
lowerback -9.166773 -5.245064 -5.652416
upperback 2.640209 -6.499515 1.567742
thorax 8.691067 -3.487792 3.811291
lowerneck -26.303751 -2.556367 -10.415394
upperneck 25.837460 -2.973762 11.373560
head 13.155451 -0.780416 5.561523
rclavicle 0.000000 -0.000000
rhumerus -49.984661 9.094326 -93.881035
rradius 41.063004
rwrist -21.611700
rhand -34.323082 -25.878819
rfingers 7.837522
rthumb -4.926911 -58.804680
lclavicle 0.000000 -0.000000
lhumerus -6.743462 -24.528679 91.079338
lradius 36.595901
lwrist 9.468206
lhand -18.690430 -28.535650
lfingers 7.837522
lthumb 10.168137 4.219446
rfemur -44.806412 10.684267 10.794510
rtibia 32.294128
rfoot -25.222450 -7.639335
rtoes -18.137131
lfemur 13.382490 2.650879 -32.229561
ltibia 0.000000
lfoot -15.565110 4.984309
ltoes 3.179484
487
root 11.955239 18.984240 35.096931 4.864761 4.656223 5.333581
lowerback -7.193142 -5.208731 -5.763945
upperback 0.953066 -6.551523 1.481799
thorax 5.774175 -3.430878 4.011304
lowerneck -25.020050 -2.613743 -10.556271
upperneck 26.880810 -3.098161 11.043560
head 13.319460 -0.929385 5.465383
rclavicle 0.000000 -0.000000
rhumerus -53.210518 9.316373 -94.114899
rradius 41.254402
rwrist -21.721479
rhand -34.181179 -25.683790
rfingers 7.837522
rthumb -4.789851 -58.612511
lclavicle 0.000000 -0.000000
lhumerus -10.320134 -25.070541 92.670822
lradius 37.015659
lwrist 8.257139
lhand -19.992498 -28.845631
lfingers 7.837522
lthumb 8.911540 3.961573
rfemur -45.245640 11.639760 9.840105
rtibia 31.661850
rfoot -26.102230 -7.823585
rtoes -18.108091
lfemur 14.007401 2.665916 -32.564178
ltibia 0.000000
lfoot -16.030960 5.083727
ltoes 2.177153
488
root 11.942700 18.959492 35.246639 5.035327 4.599925 5.752054
lowerback -6.086278 -5.211503 -6.043774
upperback -0.061483 -6.604576 1.364297
thorax 4.110271 -3.405963 4.178262
lowerneck -23.836559 -2.394073 -10.661849
upperneck 27.130070 -2.892142 11.105380
head 13.157540 -0.867325 5.537730
rclavicle -0.000000 0.000000
rhumerus -55.042351 9.391041 -94.327530
rradius 41.105350
rwrist -21.705641
rhand -34.426811 -24.803570
rfingers 7.837522
rthumb -5.027022 -57.727341
lclavicle -0.000000 0.000000
lhumerus -12.253120 -24.794001 93.451050
lradius 37.786102
lwrist 8.914906
lhand -18.421921 -28.855751
lfingers 7.837522
lthumb 10.427187 3.887708
rfemur -45.867802 12.669250 8.710658
rtibia 30.979521
rfoot -26.768831 -8.152584
rtoes -17.873240
lfemur 14.434310 2.653596 -32.922779
ltibia -0.000000
lfoot -16.292650 5.268714
ltoes 1.598003
489
root 11.925540 18.936390 35.403938 5.384973 4.540976 5.356263
lowerback -5.799838 -5.242325 -5.532461
upperback -0.698531 -6.703532 1.413918
thorax 3.249488 -3.415324 3.993715
lowerneck -23.524929 -2.285162 -10.142793
upperneck 27.645969 -2.867601 10.704111
head 13.279091 -0.868988 5.313649
rclavicle 0.000000 -0.000000
rhumerus -56.120903 9.487544 -94.617599
rradius 40.870171
rwrist -21.661200
rhand -34.446281 -24.892670
rfingers 7.837522
rthumb -5.045854 -57.816002
lclavicle 0.000000 -0.000000
lhumerus -13.601940 -24.894100 93.824173
lradius 38.216530
lwrist 8.893588
lhand -18.049019 -29.001390
lfingers 7.837522
lthumb 10.787006 3.725447
rfemur -46.694450 13.738230 8.497841
rtibia 30.380241
rfoot -27.560501 -8.720294
rtoes -16.674349
lfemur 14.671470 2.659206 -32.425140
ltibia 0.000000
lfoot -16.446980 5.593335
ltoes 0.059839
490
root 11.912009 18.917250 35.577522 5.595645 4.647423 4.512662
lowerback -6.023391 -5.292386 -4.579586
upperback -0.878900 -6.822893 1.605912
thorax 3.119941 -3.458785 3.645059
lowerneck -23.354319 -2.157925 -9.860785
upperneck 27.665329 -2.778721 10.624801
head 13.236521 -0.815477 5.246626
rclavicle -0.000000 -0.000000
rhumerus -56.561779 9.229627 -94.594719
rradius 40.754673
rwrist -21.366730
rhand -33.951721 -25.577639
rfingers 7.837522
rthumb -4.568223 -58.510872
lclavicle -0.000000 -0.000000
lhumerus -14.470389 -25.915670 94.215218
lradius 38.242821
lwrist 7.716225
lhand -20.179060 -29.208300
lfingers 7.837522
lthumb 8.731492 3.605745
rfemur -47.145119 14.415609 9.078708
rtibia 29.986990
rfoot -28.999739 -8.584642
rtoes -11.506221
lfemur 15.117849 2.556961 -31.426229
ltibia -0.000000
lfoot -16.836161 5.711013
ltoes -0.899221
491
root 11.901670 18.892941 35.739002 5.584854 4.804833 4.619725
lowerback -6.018892 -5.352996 -4.639151
upperback -0.821962 -6.898507 1.558392
thorax 3.184401 -3.498913 3.618846
lowerneck -23.948870 -2.287923 -9.575302
upperneck 28.054510 -2.937649 10.272581
head 13.518120 -0.895003 5.057459
rclavicle -0.000000 -0.000000
rhumerus -56.528339 8.672103 -94.270226
rradius 40.539291
rwrist -20.811560
rhand -33.134861 -26.318602
rfingers 7.837522
rthumb -3.779413 -59.265911
lclavicle -0.000000 -0.000000
lhumerus -14.577860 -25.938330 94.341827
lradius 38.714832
lwrist 8.842031
lhand -18.921320 -29.059361
lfingers 7.837522
lthumb 9.945332 3.705493
rfemur -47.331791 14.324310 8.978266
rtibia 29.798450
rfoot -30.944870 -6.110632
rtoes 4.362039
lfemur 15.756290 2.371446 -31.381130
ltibia -0.000000
lfoot -17.291889 5.243502
ltoes 0.809780
